<mxfile host="app.diagrams.net" agent="Mozilla/5.0 (Windows NT 10.0; Win64; x64; rv:131.0) Gecko/20100101 Firefox/131.0" version="24.7.12">
  <diagram name="Страница — 1" id="rsmYetD_F2s85u5W78A0">
    <mxGraphModel dx="1434" dy="782" grid="1" gridSize="10" guides="1" tooltips="1" connect="1" arrows="1" fold="1" page="1" pageScale="1" pageWidth="827" pageHeight="1169" math="0" shadow="0">
      <root>
        <mxCell id="0" />
        <mxCell id="1" parent="0" />
        <mxCell id="H2nPs0KLHzomcW4NN_7h-26" style="edgeStyle=orthogonalEdgeStyle;rounded=0;orthogonalLoop=1;jettySize=auto;html=1;exitX=1;exitY=0.5;exitDx=0;exitDy=0;entryX=0;entryY=0.5;entryDx=0;entryDy=0;" edge="1" parent="1" source="H2nPs0KLHzomcW4NN_7h-1" target="H2nPs0KLHzomcW4NN_7h-25">
          <mxGeometry relative="1" as="geometry" />
        </mxCell>
        <mxCell id="H2nPs0KLHzomcW4NN_7h-62" value="&lt;div&gt;*&lt;/div&gt;" style="edgeLabel;html=1;align=center;verticalAlign=middle;resizable=0;points=[];" vertex="1" connectable="0" parent="H2nPs0KLHzomcW4NN_7h-26">
          <mxGeometry x="-0.6977" y="-2" relative="1" as="geometry">
            <mxPoint as="offset" />
          </mxGeometry>
        </mxCell>
        <mxCell id="H2nPs0KLHzomcW4NN_7h-1" value="Животные" style="rounded=0;whiteSpace=wrap;html=1;" vertex="1" parent="1">
          <mxGeometry x="304" y="380" width="110" height="70" as="geometry" />
        </mxCell>
        <mxCell id="H2nPs0KLHzomcW4NN_7h-60" style="edgeStyle=orthogonalEdgeStyle;rounded=0;orthogonalLoop=1;jettySize=auto;html=1;exitX=1;exitY=0.5;exitDx=0;exitDy=0;entryX=0;entryY=0.5;entryDx=0;entryDy=0;" edge="1" parent="1" source="H2nPs0KLHzomcW4NN_7h-7" target="H2nPs0KLHzomcW4NN_7h-1">
          <mxGeometry relative="1" as="geometry" />
        </mxCell>
        <mxCell id="H2nPs0KLHzomcW4NN_7h-7" value="Порода" style="ellipse;whiteSpace=wrap;html=1;align=center;" vertex="1" parent="1">
          <mxGeometry x="100" y="340" width="100" height="40" as="geometry" />
        </mxCell>
        <mxCell id="H2nPs0KLHzomcW4NN_7h-61" style="edgeStyle=orthogonalEdgeStyle;rounded=0;orthogonalLoop=1;jettySize=auto;html=1;exitX=1;exitY=0.5;exitDx=0;exitDy=0;entryX=0.5;entryY=1;entryDx=0;entryDy=0;" edge="1" parent="1" source="H2nPs0KLHzomcW4NN_7h-8" target="H2nPs0KLHzomcW4NN_7h-1">
          <mxGeometry relative="1" as="geometry" />
        </mxCell>
        <mxCell id="H2nPs0KLHzomcW4NN_7h-8" value="Вид" style="ellipse;whiteSpace=wrap;html=1;align=center;" vertex="1" parent="1">
          <mxGeometry x="100" y="510" width="100" height="40" as="geometry" />
        </mxCell>
        <mxCell id="H2nPs0KLHzomcW4NN_7h-37" style="edgeStyle=orthogonalEdgeStyle;rounded=0;orthogonalLoop=1;jettySize=auto;html=1;exitX=0.5;exitY=1;exitDx=0;exitDy=0;" edge="1" parent="1" source="H2nPs0KLHzomcW4NN_7h-17" target="H2nPs0KLHzomcW4NN_7h-31">
          <mxGeometry relative="1" as="geometry" />
        </mxCell>
        <mxCell id="H2nPs0KLHzomcW4NN_7h-59" value="1" style="edgeLabel;html=1;align=center;verticalAlign=middle;resizable=0;points=[];" vertex="1" connectable="0" parent="H2nPs0KLHzomcW4NN_7h-37">
          <mxGeometry x="-0.7091" y="2" relative="1" as="geometry">
            <mxPoint as="offset" />
          </mxGeometry>
        </mxCell>
        <mxCell id="H2nPs0KLHzomcW4NN_7h-17" value="&lt;div&gt;Производитель&lt;/div&gt;&lt;div&gt;корма&lt;br&gt;&lt;/div&gt;" style="whiteSpace=wrap;html=1;align=center;" vertex="1" parent="1">
          <mxGeometry x="380" y="10" width="100" height="40" as="geometry" />
        </mxCell>
        <mxCell id="H2nPs0KLHzomcW4NN_7h-39" style="edgeStyle=orthogonalEdgeStyle;rounded=0;orthogonalLoop=1;jettySize=auto;html=1;exitX=0.5;exitY=0;exitDx=0;exitDy=0;entryX=1;entryY=0.25;entryDx=0;entryDy=0;" edge="1" parent="1" source="H2nPs0KLHzomcW4NN_7h-21" target="H2nPs0KLHzomcW4NN_7h-17">
          <mxGeometry relative="1" as="geometry" />
        </mxCell>
        <mxCell id="H2nPs0KLHzomcW4NN_7h-21" value="&lt;div&gt;Производители&lt;/div&gt;" style="ellipse;whiteSpace=wrap;html=1;align=center;" vertex="1" parent="1">
          <mxGeometry x="660" y="120" width="100" height="40" as="geometry" />
        </mxCell>
        <mxCell id="H2nPs0KLHzomcW4NN_7h-25" value="&lt;div&gt;Подходит под породу&lt;/div&gt;&lt;div&gt;&lt;br&gt;&lt;/div&gt;" style="shape=rhombus;perimeter=rhombusPerimeter;whiteSpace=wrap;html=1;align=center;" vertex="1" parent="1">
          <mxGeometry x="500" y="385" width="120" height="60" as="geometry" />
        </mxCell>
        <mxCell id="H2nPs0KLHzomcW4NN_7h-55" style="edgeStyle=orthogonalEdgeStyle;rounded=0;orthogonalLoop=1;jettySize=auto;html=1;exitX=0.5;exitY=0;exitDx=0;exitDy=0;entryX=0.5;entryY=1;entryDx=0;entryDy=0;" edge="1" parent="1" source="H2nPs0KLHzomcW4NN_7h-28" target="H2nPs0KLHzomcW4NN_7h-31">
          <mxGeometry relative="1" as="geometry" />
        </mxCell>
        <mxCell id="H2nPs0KLHzomcW4NN_7h-56" value="*" style="edgeLabel;html=1;align=center;verticalAlign=middle;resizable=0;points=[];" vertex="1" connectable="0" parent="H2nPs0KLHzomcW4NN_7h-55">
          <mxGeometry x="-0.903" relative="1" as="geometry">
            <mxPoint as="offset" />
          </mxGeometry>
        </mxCell>
        <mxCell id="H2nPs0KLHzomcW4NN_7h-57" style="edgeStyle=orthogonalEdgeStyle;rounded=0;orthogonalLoop=1;jettySize=auto;html=1;exitX=0;exitY=0.5;exitDx=0;exitDy=0;entryX=1;entryY=0.5;entryDx=0;entryDy=0;" edge="1" parent="1" source="H2nPs0KLHzomcW4NN_7h-28" target="H2nPs0KLHzomcW4NN_7h-25">
          <mxGeometry relative="1" as="geometry" />
        </mxCell>
        <mxCell id="H2nPs0KLHzomcW4NN_7h-58" value="*" style="edgeLabel;html=1;align=center;verticalAlign=middle;resizable=0;points=[];" vertex="1" connectable="0" parent="H2nPs0KLHzomcW4NN_7h-57">
          <mxGeometry x="-0.55" relative="1" as="geometry">
            <mxPoint as="offset" />
          </mxGeometry>
        </mxCell>
        <mxCell id="H2nPs0KLHzomcW4NN_7h-28" value="&lt;div&gt;Корм&lt;/div&gt;" style="whiteSpace=wrap;html=1;align=center;" vertex="1" parent="1">
          <mxGeometry x="700" y="395" width="100" height="40" as="geometry" />
        </mxCell>
        <mxCell id="H2nPs0KLHzomcW4NN_7h-31" value="&lt;div&gt;Производит&lt;/div&gt;" style="shape=rhombus;perimeter=rhombusPerimeter;whiteSpace=wrap;html=1;align=center;" vertex="1" parent="1">
          <mxGeometry x="370" y="160" width="120" height="60" as="geometry" />
        </mxCell>
        <mxCell id="H2nPs0KLHzomcW4NN_7h-64" style="edgeStyle=orthogonalEdgeStyle;rounded=0;orthogonalLoop=1;jettySize=auto;html=1;exitX=0.5;exitY=0;exitDx=0;exitDy=0;entryX=0.5;entryY=1;entryDx=0;entryDy=0;" edge="1" parent="1" source="H2nPs0KLHzomcW4NN_7h-63" target="H2nPs0KLHzomcW4NN_7h-28">
          <mxGeometry relative="1" as="geometry" />
        </mxCell>
        <mxCell id="H2nPs0KLHzomcW4NN_7h-63" value="Attribute" style="ellipse;whiteSpace=wrap;html=1;align=center;" vertex="1" parent="1">
          <mxGeometry x="700" y="550" width="100" height="40" as="geometry" />
        </mxCell>
      </root>
    </mxGraphModel>
  </diagram>
</mxfile>
